<?xml version="1.0" encoding="UTF-8"?>
<svg version="1.1" viewBox="0 0 2048 1632" width="1280" height="1280" xmlns="http://www.w3.org/2000/svg">
<path transform="translate(0)" d="m0 0h2048v1632h-2048z" fill="#FBFBFB"/>
<path transform="translate(997,345)" d="m0 0 14 8 29 17 20 12 17 10 15 9 32 19 20 12 27 16 18 11 1 1 1 137 10-9 12-11 8-7 10-9 11-9 16-15 11-9 8-7h1v156h59v223l-85 1-1-30v-167h-88v-45l-8 7-10 9-14 12-2 2-1 62h93v149l-70 1h-49l-1-1v-121h-192l1 99-1 23h-131v-165l15-15 8-7 9-9 8-7 8-8 8-7 7-7 8-7 10-10 8-7 17-16 5-5 4 1 54 39 16 12 4 2-1-21-12-9-19-14-18-13-19-14-9-6-9 9-8 7-15 14-10 9-12 11-13 12-10 9-14 13-8 7-15 14-10 9-13 12-8 7-2 2h-39l2-4 14-12 11-11 8-7 12-11 13-12 12-11 8-7 15-14 8-7 15-14 12-11 10-9 15-14 10-9 15-14 4-3 4 1 10 8 14 10 38 28 10 8 3 2 1-32 2-1 95 1v137l-4-2-16-12-36-26-12-9-3-1 1 4v50l-6-4-36-26-19-14-17-12-19-14-5-3-11 11-8 7-8 8-8 7-7 7-8 7-8 8-8 7-10 10-8 7-2 2-1 127 77-1 1-122 86-1 132 1v-74l16-15 11-9 7-7 11-9 15-14 1-14v-133l-4-4-28-16-15-9-48-28-15-9-21-12-6-4-1 1v98l-1 89h-26z" fill="#131718"/>
<path transform="translate(941,805)" d="m0 0h127v95l-4 1h-49l-47 1-27-1z" fill="#131718"/>
<path transform="translate(1127,779)" d="m0 0h67v94l-4 1h-62l-1-34z" fill="#FCFCFC"/>
<path transform="translate(1278,704)" d="m0 0h32l1 169-1 1h-31l-1-1-1-28v-117z" fill="#FCFCFC"/>
<path transform="translate(1250,580)" d="m0 0h1v97h-61l-1-42 7-7 8-7 11-10 8-7 10-9 11-9z" fill="#FCFCFC"/>
<path transform="translate(1248,1028)" d="m0 0h11l8 4 7 8 3 8v46l-4 10-7 6-10 4-9-1-8-4-7-8-2-6-1-25 1-24 5-10 7-6z" fill="#131718"/>
<path transform="translate(287,1029)" d="m0 0h27l10 3 7 6 4 8 1 10-3 9-4 6 4 8 1 3v32h-13l-2-31-4-4-3-1-11-1v36l-1 1h-14z" fill="#131718"/>
<path transform="translate(541,1029)" d="m0 0h24l9 2 8 5 5 7 1 3v14l-5 9v3l4 10v32h-13l-1-1-1-30-4-4-3-1h-11l-1 36h-13l-1-1 1-83z" fill="#131718"/>
<path transform="translate(907,1029)" d="m0 0h26l10 3 8 7 4 8v11l-5 10-1 4 4 8 1 29-1 5h-13l-1-30-5-5-3-1-11-1v37h-14v-44z" fill="#131718"/>
<path transform="translate(968,832)" d="m0 0h73v41l-5 1h-67l-1-1z" fill="#FCFCFC"/>
<path transform="translate(1715,1029)" d="m0 0h9l4 5 11 26 7 15v-45l1-1h12v85h-9l-3-3-10-21-9-19v43h-13l-1-22v-62z" fill="#131718"/>
<path transform="translate(1306,1029)" d="m0 0h10l8 16 10 23 3 6v-44l1-1h12v85h-10l-8-16-11-24-3-3 1 21v22h-13l-1-41v-43z" fill="#131718"/>
<path transform="translate(227,1029)" d="m0 0h18l2 6 13 77v2h-14l-1-10h-18l-1 10h-14l6-36 8-45z" fill="#131718"/>
<path transform="translate(1656,1029)" d="m0 0h17l2 7 12 72v6h-13l-1-10h-18l-1 10h-14l6-38 8-43z" fill="#131718"/>
<path transform="translate(995,1029)" d="m0 0h17l2 6 11 65 2 14h-14l-1-10h-18l-1 10h-14l7-41 7-39z" fill="#131718"/>
<path transform="translate(141,1029)" d="m0 0h13l1 28 4-5 14-21 2-2h13l-2 6-15 23-2 3 1 6 13 28 8 17v2h-15l-7-14-9-20h-3l-2 4-1 30h-14v-44z" fill="#131718"/>
<path transform="translate(1451,1029)" d="m0 0h14l1 2v60l2 5 4 2h6l5-4 1-65h14l1 53-1 15-5 8-7 6-8 3-10-1-8-5-7-8-2-5z" fill="#131718"/>
<path transform="translate(832,1029)" d="m0 0h12l1 42v21l3 5 2 1h7l5-5 1-64h14v66l-3 8-9 8-8 3-10-1-8-4-6-7-3-7v-65z" fill="#131718"/>
<path transform="translate(616,1029)" d="m0 0h13l1 43v19l2 5 4 2h6l5-4 1-22v-42l1-1h13l1 43-1 25-3 6-7 7-10 4-10-1-10-6-5-7-2-7v-63z" fill="#131718"/>
<path transform="translate(415,1028)" d="m0 0h10l8 3 6 5 5 10v15l-1 1h-12l-1-1-1-14-5-4h-6l-5 2-1 4v7l5 6 17 9 5 5 4 5 1 3v12l-4 8-8 7-8 3-10-1-8-4-7-9-2-6v-10h14l2 10 2 3 9 1 5-5v-7l-8-6-14-8-7-8-3-9v-7l3-8 4-6 8-5z" fill="#131718"/>
<path transform="translate(1871,1028)" d="m0 0h11l9 4 7 8 2 5v17h-13l-1-5-1-10-3-3-2-1h-6l-5 4-1 8 3 5 10 6 11 6 6 7 2 4v14l-4 8-8 6-8 3-10-1-8-5-6-7-3-9v-8l13-1 1 1 2 10 1 3 10 1 5-4 1-6-2-4-21-12-7-8-2-5v-15l5-8 7-6z" fill="#131718"/>
<path transform="translate(1395,1028)" d="m0 0h11l10 5 7 9 1 3v17h-12l-2-1v-11l-1-5-5-2h-6l-5 4-1 2 1 9 8 6 15 8 6 7 2 4v13l-3 7-4 5-9 5-10 1-10-4-7-7-3-6-1-5v-8h15v8l3 5 9 1 5-4 1-7-1-3-4-2-18-10-6-7-3-6-1-9 3-10 7-8z" fill="#131718"/>
<path transform="translate(1174,1028)" d="m0 0h10l8 3 7 7 4 10v9h-14l-1-9-4-4-2-1h-6l-5 5v45l5 5h6l6-5 1-9h14v8l-3 10-6 7-8 4-10 1-10-4-5-5-3-4-2-6v-48l4-10 7-6z" fill="#131718"/>
<path transform="translate(708,1028)" d="m0 0h10l8 3 7 7 3 6 1 5v8h-14l-1-9-5-5h-7l-5 5v45l5 5h6l4-2 2-3 1-9h14v9l-3 9-6 7-8 4-3 1h-7l-10-4-8-9-2-7v-47l3-8 4-5 8-5z" fill="#131718"/>
<path transform="translate(994,625)" d="m0 0h43v57l-4-2-20-15-19-14z" fill="#FCFCFC"/>
<path transform="translate(468,1029)" d="m0 0h46v15h-16v70h-14v-70h-17v-9z" fill="#131718"/>
<path transform="translate(759,1029)" d="m0 0h46l1 3-1 12h-16l1 28-1 42h-14v-70h-16z" fill="#131718"/>
<path transform="translate(1578,1029)" d="m0 0h46v15h-16v70h-14v-70h-16l-1-2z" fill="#131718"/>
<path transform="translate(1785,1029)" d="m0 0h47v14l-1 1h-16l1 28-1 42h-13l-1-44 1-26h-17z" fill="#131718"/>
<path transform="translate(1528,1029)" d="m0 0h13l1 43v26l25 1v15h-40v-44z" fill="#131718"/>
<path transform="translate(1054,1029)" d="m0 0h13l1 43-1 27h26v15h-40v-44z" fill="#131718"/>
<path transform="translate(1250,1042)" d="m0 0h6l6 4 1 2v45l-5 5-2 1h-6l-5-4-1-2v-46z" fill="#FCFCFC"/>
<path transform="translate(282,1209)" d="m0 0h13l5 3 2 4v33l-4 5-7 2-10-1v-45z" fill="#131718"/>
<path transform="translate(103,1209)" d="m0 0h12l5 2 2 3 1 5v7l-1 3h-2l3 7v13l-4 5-2 1-14 1-1-1v-45z" fill="#131718"/>
<path transform="translate(1095,552)" d="m0 0h29v30h-29z" fill="#131718"/>
<path transform="translate(1047,552)" d="m0 0h29v30h-29z" fill="#131718"/>
<path transform="translate(1095,506)" d="m0 0h29v30h-29z" fill="#131718"/>
<path transform="translate(1047,506)" d="m0 0h29v30h-29z" fill="#131718"/>
<path transform="translate(1047,460)" d="m0 0h29v29h-29z" fill="#131718"/>
<path transform="translate(1283,1209)" d="m0 0h12l6 3 1 2 1 14-1 7-4 3 1 5 5 10v2l-5-1-7-13v-2h-5v16h-5v-45z" fill="#131718"/>
<path transform="translate(595,1209)" d="m0 0h11l6 3 1 2v20l-4 4h-2l8 15v2h-5l-8-15-4-1v16h-5v-45z" fill="#131718"/>
<path transform="translate(368,1209)" d="m0 0 5 2 12 29 1-30 4-1 1 1v46l-5-1-5-12-8-18-1 30h-5v-45z" fill="#131718"/>
<path transform="translate(1137,1209)" d="m0 0 4 1 11 25 2 5 1-30 4-1 1 4 1 43h-5l-6-12-9-21v32h-5v-45z" fill="#131718"/>
<path transform="translate(1368,1209)" d="m0 0 5 2 10 24 2 5 1-30h5v45h-6l-6-16-6-14-1 30h-5v-45z" fill="#131718"/>
<path transform="translate(688,1209)" d="m0 0 5 1 11 26 2 5 1-31h5v45l-5 1-5-12-9-20v31h-5z" fill="#131718"/>
<path transform="translate(1818,1209)" d="m0 0 4 1 7 14 7 17 1-32 4 1 1 45-5 1-5-11-9-21v31h-5z" fill="#131718"/>
<path transform="translate(996,1209)" d="m0 0 5 1 12 29 1 2 1-32h4v47l-5-1-11-27-2-4-1 32h-4z" fill="#131718"/>
<path transform="translate(427,1209)" d="m0 0h8l5 3 2 4v11h-5l-1-12-6-1-5 2v34h8l3-1 1-13h-7l-1-3 2-1h10l1 1v21l-3 1v-2l-5 2h-9l-5-5-1-19 1-17 4-4z" fill="#131718"/>
<path transform="translate(833,1210)" d="m0 0h5v20h13v-20h5v45h-5v-21h-13v21h-5z" fill="#131718"/>
<path transform="translate(1056,1209)" d="m0 0h8l4 2 2 4v12l-4 1-1-2v-12h-7l-5 1v24l1 10 1 1h7l2-1 1-13h-6v-4h11v23h-3l-2-2-3 2h-8l-5-4-1-4v-30l2-5z" fill="#131718"/>
<path transform="translate(748,1209)" d="m0 0h7l5 3 2 2v13h-4l-1-12-7-1-5 1 1 34 1 1h7l3-2 1-12h-7l-1-3 3-1h9v23l-4-2-4 2h-8l-5-4-1-5v-29l2-5z" fill="#131718"/>
<path transform="translate(1427,1209)" d="m0 0h8l5 3 2 3v12h-4l-1-11-4-2-7 1-1 7v28h9l3-2v-12h-6l-2-3 4-1h8l1 1v22l-5-1-3 1h-9l-4-3-1-3v-35l4-4z" fill="#131718"/>
<path transform="translate(286,1213)" d="m0 0h9l2 1v36l-4 2h-7l-1-1v-37z" fill="#FCFCFC"/>
<path transform="translate(153,1209)" d="m0 0h4l1 40 1 1h8l2-2 1-38 2-1 2 1v40l-4 4-2 1h-10l-5-4-1-4v-37z" fill="#131718"/>
<path transform="translate(1544,1209)" d="m0 0h5l6 15 3-4 5-10 4-1 1 2-9 20 3 9 6 15-3 1-4-4-5-12-2 3-6 13-5-1 5-13 4-9-1-5-7-16z" fill="#131718"/>
<path transform="translate(507,1209)" d="m0 0h8l6 4 1 3v7h-4l-2-7-3-2-6 1-2 2 1 7 14 13 2 4v8l-4 5-8 2-7-3-3-4v-8l2-1 2 1 2 8 1 1h7l2-1 1-5-3-6-13-12-1-2v-9l5-5z" fill="#131718"/>
<path transform="translate(1601,1209)" d="m0 0h7l6 4 1 3v11l-5-1v-10l-1-1h-10l-1 8v17l1 9 1 1h7l3-3 2-4h3v6l-4 5-9 2-7-3-2-4v-34l5-5z" fill="#131718"/>
<path transform="translate(1879,1209)" d="m0 0h7l5 3 2 5v10l-5-1-1-11-7-1-4 2v34h9l3-3 1-4h4l-1 7-4 4-2 1h-10l-5-5v-36l4-4z" fill="#131718"/>
<path transform="translate(1194,1209)" d="m0 0h14v4h-14v18h12v3l-12 1v17h15v3l-18 1-2-1v-45z" fill="#131718"/>
<path transform="translate(1775,1209)" d="m0 0h16l-1 4h-14v18h12v3l-12 1v17h15v3h-19l-1-17v-28z" fill="#131718"/>
<path transform="translate(554,1044)" d="m0 0h15l5 4v9l-5 5h-16v-17z" fill="#FCFCFC"/>
<path transform="translate(1644,1209)" d="m0 0h19l-1 4h-14v18h12v3l-12 1v17h15v3l-19 1-1-28v-18z" fill="#131718"/>
<path transform="translate(920,1044)" d="m0 0h15l5 3 1 2v7l-5 6h-16z" fill="#FCFCFC"/>
<path transform="translate(301,1044)" d="m0 0h15l5 4 1 7-4 6-2 1h-15l-1-1z" fill="#FCFCFC"/>
<path transform="translate(646,1209)" d="m0 0h15l-1 4h-14v18h12l-1 4h-11v17h15v3l-17 1-2-1-1-28v-17z" fill="#131718"/>
<path transform="translate(1503,1209)" d="m0 0h17l-1 4-13 1-1 17h12v3l-12 1 1 16 14 1 1 3h-20l-1-45z" fill="#131718"/>
<path transform="translate(951,1209)" d="m0 0h18v5l-15-1v18h12v3l-12 1v17l15-1v5h-19v-46z" fill="#131718"/>
<path transform="translate(1922,1209)" d="m0 0h18v3l-1 1h-14v18h12l-1 4h-11l1 16 15 1-1 3-6 1-13-1v-45z" fill="#131718"/>
<path transform="translate(1242,1209)" d="m0 0h13l-1 4h-14l1 18h11v3l-12 1v17h15v3l-18 1-1-1-1-45z" fill="#131718"/>
<path transform="translate(546,1209)" d="m0 0h21l1 3-2 1h-7v42h-5v-42h-8z" fill="#131718"/>
<path transform="translate(792,1209)" d="m0 0h16v4h-8v42h-5v-42h-8l-1-3z" fill="#131718"/>
<path transform="translate(329,1209)" d="m0 0h9l2 1-1 3h-2v39l3 1v2h-11v-3h3l-1-39-3-3z" fill="#131718"/>
<path transform="translate(236,1054)" d="m0 0 2 3 4 28v5l-1 1h-11l1-13 4-23z" fill="#FCFCFC"/>
<path transform="translate(1328,1209)" d="m0 0h9l3 2-3 2v38l2 4h-11l1-3h2v-40l-3-1z" fill="#131718"/>
<path transform="translate(1664,1054)" d="m0 0 2 3 4 29-1 5h-10l-1-1v-7l5-27z" fill="#FCFCFC"/>
<path transform="translate(1e3 1053)" d="m0 0 2 4 4 26v8h-11l-1-1 1-10 4-24z" fill="#FCFCFC"/>
<path transform="translate(1731,1209)" d="m0 0 4 1v42h11v3h-16v-45z" fill="#131718"/>
<path transform="translate(1101,1209)" d="m0 0 8 1-1 3-2 1 1 38 2 1v2h-11v-3h3l-1-39-3-3z" fill="#131718"/>
<path transform="translate(598,1213)" d="m0 0h9l2 2v18l-4 2h-7l-1-1v-20z" fill="#FCFCFC"/>
<path transform="translate(1287,1213)" d="m0 0h9l2 2v18l-3 2h-8l-1-21z" fill="#FCFCFC"/>
<path transform="translate(1690,1210)" d="m0 0h5v42h11v3h-16z" fill="#131718"/>
<path transform="translate(202,1209)" d="m0 0 11 1-3 3v39l2 1v2h-10v-3h2v-40l-3-1z" fill="#131718"/>
<path transform="translate(239,1210)" d="m0 0h6v41l11 1v3h-16z" fill="#131718"/>
<path transform="translate(107,1233)" d="m0 0h10l2 4v11l-3 3-2 1h-7z" fill="#FCFCFC"/>
<path transform="translate(107,1213)" d="m0 0h9l2 2v13l-7 2h-4z" fill="#FCFCFC"/>
<path transform="translate(887,1249)" d="m0 0 4 1-1 10-4-1v-9z" fill="#131718"/>
</svg>
